<?xml version="1.0" encoding="UTF-8"?>
<!DOCTYPE svg PUBLIC "-//W3C//DTD SVG 1.1//EN" "http://www.w3.org/Graphics/SVG/1.1/DTD/svg11.dtd">
<!-- Creator: CorelDRAW -->
<svg xmlns="http://www.w3.org/2000/svg" xml:space="preserve" width="76.2006mm" height="84.1358mm" style="shape-rendering:geometricPrecision; text-rendering:geometricPrecision; image-rendering:optimizeQuality; fill-rule:evenodd; clip-rule:evenodd"
viewBox="0 0 76.2006 84.1358"
 xmlns:xlink="http://www.w3.org/1999/xlink">
 <defs>
  <style type="text/css">
   <![CDATA[
    .fil1 {fill:white}
    .fil0 {fill:#F5C525}
   ]]>
  </style>
 </defs>
 <g id="Capa_x0020_1">
  <metadata id="CorelCorpID_0Corel-Layer"/>
  <g id="_156035056">
   <path id="_156032800" class="fil0" d="M70.8786 16.0573l-10.7288 -10.7288c-4.483,-4.483 -11.7515,-4.483 -16.2349,0l-3.5386 3.5386c-4.4832,4.4831 -4.4832,11.7518 0,16.2349l1.3199 1.3199 -38.0585 38.0583c-2.2337,2.2337 -2.2337,5.8553 0,8.0892 2.2339,2.2337 5.8555,2.2337 8.0892,0l1.3611 -1.3611 10.9615 10.9614 5.842 -5.842 -5.932 -5.9319 5.842 -5.842 3.2356 3.2356 5.842 -5.842 -8.265 -8.265 19.1708 -19.1708 1.3198 1.3199c4.4831,4.483 11.7518,4.483 16.235,0l3.5386 -3.5386c4.4835,-4.4839 4.4835,-11.7524 0.0003,-16.2356zm-12.9635 6.8916c-1.1885,1.1889 -3.1233,1.1889 -4.3117,0 -1.1888,-1.1886 -1.1888,-3.1228 0,-4.3117 0.5945,-0.5945 1.3751,-0.8916 2.1558,-0.8916 0.7807,0 1.5616,0.2973 2.1558,0.8915 1.1889,1.1891 1.1889,3.1234 0.0001,4.3118z"/>
   <g>
    <path id="_156033640" class="fil1" d="M72.2688 14.6671l-10.7288 -10.729c-2.5395,-2.5397 -5.9161,-3.9381 -9.5075,-3.9381 -0.0003,0 0,0 -0.0001,0 -3.5916,0 -6.968,1.3988 -9.5075,3.9381l-3.5387 3.5387c-2.5396,2.5397 -3.9381,5.9161 -3.9381,9.5076 0,3.5582 1.373,6.9056 3.8681,9.4369l-36.6687 36.6685c-2.9967,2.9967 -2.9967,7.8731 0,10.8698 2.9868,2.9868 7.8414,2.9964 10.8407,0.0288l9.5711 9.5716c0.3689,0.3686 0.8688,0.5758 1.3902,0.5758 0.5214,0 1.0217,-0.2072 1.3902,-0.5758l5.842 -5.8424c0.7678,-0.7677 0.7678,-2.0126 0,-2.7806l-4.5418 -4.5418 3.0616 -3.0614 1.8454 1.8454c0.7679,0.7674 2.0125,0.7677 2.7806,0l5.842 -5.8419c0.3686,-0.3685 0.5758,-0.8688 0.5758,-1.3902 0,-0.5214 -0.2072,-1.0214 -0.5758,-1.3902l-6.8748 -6.8748 16.3908 -16.3909c5.248,5.1726 13.7257,5.1491 18.9445,-0.07l3.5387 -3.5386c5.2425,-5.2429 5.2425,-13.7728 0.0001,-19.0155zm-2.7804 16.2347l-3.5386 3.5387c-3.7092,3.7097 -9.745,3.7092 -13.4545,0l-1.3201 -1.3199c-0.7675,-0.7679 -2.0123,-0.7676 -2.7804,0l-19.1708 19.1708c-0.7677,0.7677 -0.7677,2.0127 0,2.7806l6.8748 6.8748 -3.0615 3.0616 -6.7178 -6.7181c-0.7679,-0.7676 -2.0125,-0.7676 -2.7805,0 -0.7678,0.7678 -0.7678,2.0127 0,2.7806l3.4821 3.4821 -3.0485 3.0485 -3.4821 -3.4821c-0.7679,-0.7676 -2.0125,-0.7676 -2.7806,0 -0.7677,0.7677 -0.7677,2.0126 0,2.7805l9.4012 9.4274 -3.0614 3.0614 -9.571 -9.5714c-0.3689,-0.3686 -0.8688,-0.5758 -1.3902,-0.5758 -0.5214,0 -1.0214,0.2072 -1.3902,0.5758l-1.3613 1.3612c-1.4633,1.4639 -3.8451,1.4639 -5.3084,0 -1.4635,-1.4635 -1.4635,-3.8451 0,-5.3086l38.0584 -38.0584c0.7678,-0.7677 0.7678,-2.0127 0,-2.7806l-1.3198 -1.3199c-1.7971,-1.7967 -2.7865,-4.1857 -2.7865,-6.7272 0,-2.5412 0.9895,-4.9302 2.7865,-6.7271l3.5386 -3.5386c1.7966,-1.7968 4.1857,-2.7864 6.7271,-2.7864 2.5413,0 4.9303,0.9896 6.7272,2.7865l10.7288 10.7288c3.7089,3.7099 3.7089,9.7456 -0.0005,13.4548z"/>
    <path id="_156033808" class="fil1" d="M51.3105 16.3445c-2.4529,2.4531 -2.4529,6.4443 0,8.8974 1.2264,1.2264 2.8379,1.8396 4.4488,1.8396 1.6111,0 3.2225,-0.6132 4.4489,-1.8396 2.4529,-2.4531 2.4529,-6.4443 0,-8.8975 -2.4531,-2.4531 -6.4448,-2.4533 -8.8977,0.0001zm6.1171 6.1168c-0.9198,0.9201 -2.417,0.9201 -3.3367,0 -0.9199,-0.9197 -0.9199,-2.4166 0,-3.3365 0.4601,-0.4601 1.064,-0.6902 1.6683,-0.6902 0.6042,0 1.2083,0.2301 1.6682,0.6899 0.9201,0.9204 0.9201,2.4171 0.0002,3.3368z"/>
   </g>
  </g>
 </g>
</svg>
